<?xml version="1.0" standalone="no"?>
<!DOCTYPE svg PUBLIC "-//W3C//DTD SVG 20010904//EN"
 "http://www.w3.org/TR/2001/REC-SVG-20010904/DTD/svg10.dtd">
<svg version="1.0" xmlns="http://www.w3.org/2000/svg"
 width="568.000000pt" height="1112.000000pt" viewBox="0 0 568.000000 1112.000000"
 preserveAspectRatio="xMidYMid meet">

<g transform="translate(0.000000,1112.000000) scale(0.100000,-0.100000)"
fill="#000000" stroke="none">
<path d="M368 11104 c-168 -40 -306 -176 -350 -343 -16 -62 -17 -380 -17
-5196 -1 -5587 -5 -5189 53 -5304 57 -111 181 -210 305 -243 61 -16 231 -17
2476 -17 2620 -1 2471 -4 2584 53 111 57 210 181 243 305 16 62 17 380 17
5196 1 5587 5 5189 -53 5304 -57 111 -181 210 -305 243 -62 16 -230 17 -2481
17 -2026 -1 -2424 -3 -2472 -15z m4958 -310 c15 -11 37 -33 48 -48 l21 -27 3
-4780 2 -4779 -2560 0 -2560 0 0 4764 c0 3351 3 4773 11 4793 14 37 47 73 84
89 25 11 453 13 2477 11 l2447 -2 27 -21z m-4473 -9803 c67 -55 79 -71 53 -71
-10 0 -16 -19 -21 -65 -8 -73 -20 -88 -67 -83 -32 3 -33 4 -36 56 -2 36 -7 52
-17 52 -10 0 -15 -16 -17 -52 l-3 -53 -39 0 c-46 0 -53 9 -61 88 -5 41 -11 57
-22 57 -24 0 -12 14 65 79 46 37 78 58 86 53 7 -4 42 -31 79 -61z m2178 33
c17 -8 37 -30 45 -49 19 -48 19 -216 -1 -255 -29 -57 -42 -60 -242 -60 -178 0
-183 1 -210 24 -28 24 -28 26 -31 155 l-4 131 35 35 35 35 171 0 c137 0 178
-3 202 -16z m-2372 -401 c-1 -27 -4 -38 -6 -25 -3 17 -12 22 -36 24 l-32 1 33
4 c24 3 32 9 32 24 0 10 2 19 5 19 3 0 4 -21 4 -47z m79 -19 c-2 -11 -12 -20
-26 -20 -21 -2 -21 -1 -1 3 16 4 20 10 16 30 -3 16 -1 21 5 15 6 -6 8 -18 6
-28z m157 7 c0 -16 -3 -27 -7 -24 -13 7 -7 53 6 53 1 0 1 -13 1 -29z"/>
<path d="M2820 900 c0 -39 -1 -40 -35 -40 -24 0 -35 -5 -35 -15 0 -10 10 -15
34 -15 33 0 35 -2 38 -37 2 -26 8 -38 18 -38 10 0 16 12 18 38 3 35 5 37 38
37 24 0 34 5 34 15 0 10 -11 15 -35 15 -34 0 -35 1 -35 40 0 33 -3 40 -20 40
-17 0 -20 -7 -20 -40z"/>
</g>
</svg>
